<svg id="Isolation_Mode" data-name="Isolation Mode" xmlns="http://www.w3.org/2000/svg" viewBox="0 0 8.11 10.29"><defs><style>.cls-1{fill:#231f20;}</style></defs><title>location</title><path class="cls-1" d="M295.35,90.07c-.32-.33-.61-.63-.88-.93a19.77,19.77,0,0,1-2.38-3.08,6.16,6.16,0,0,1-.71-1.54,3.38,3.38,0,0,1,.24-2.3,4,4,0,0,1,3.2-2.4,4.06,4.06,0,0,1,4.51,3.32,3.7,3.7,0,0,1-.46,2.42,15.77,15.77,0,0,1-2,2.77C296.41,88.91,295.89,89.48,295.35,90.07Zm0-4a2.23,2.23,0,1,0-2.23-2.23A2.24,2.24,0,0,0,295.33,86.07Z" transform="translate(-291.27 -79.78)"/></svg>