<svg id="Isolation_Mode" data-name="Isolation Mode" xmlns="http://www.w3.org/2000/svg" viewBox="0 0 9.99 9.99"><defs><style>.cls-1{fill:#231f20;}</style></defs><title>website</title><path class="cls-1" d="M299.08,102.75a5,5,0,0,0,0-6.57l-.07-.09,0,0a5,5,0,0,0-7.34,0l0,0a.47.47,0,0,0-.06.09,4.94,4.94,0,0,0-1.23,3.27,5,5,0,0,0,8.7,3.36h0Zm-8.11-3h1.71a8.65,8.65,0,0,0,.19,1.58,4.69,4.69,0,0,0-1,.76A4.31,4.31,0,0,1,291,99.77Zm.89-3a4.65,4.65,0,0,0,1,.75,8.87,8.87,0,0,0-.19,1.59H291A4.28,4.28,0,0,1,291.86,96.8Zm7.83,2.34H298a8.87,8.87,0,0,0-.19-1.59,4.9,4.9,0,0,0,1-.75A4.36,4.36,0,0,1,299.69,99.14Zm-4-4a3,3,0,0,1,1.41,2.08,4.49,4.49,0,0,1-1.41.35ZM295,97.57a4.68,4.68,0,0,1-1.44-.35A3,3,0,0,1,295,95.13Zm0,.62v1H293.3a8.88,8.88,0,0,1,.15-1.31A4.73,4.73,0,0,0,295,98.19Zm0,1.58v.94a5.27,5.27,0,0,0-1.58.36,8.9,8.9,0,0,1-.15-1.3Zm0,1.57v2.43a2.93,2.93,0,0,1-1.44-2.08A4.22,4.22,0,0,1,295,101.34Zm.62,0a4.49,4.49,0,0,1,1.41.35,3,3,0,0,1-1.41,2.08Zm0-.63v-.94h1.7a7.72,7.72,0,0,1-.14,1.3A5.21,5.21,0,0,0,295.65,100.71Zm0-1.57v-1a4.93,4.93,0,0,0,1.56-.36,7.73,7.73,0,0,1,.14,1.31Zm2-2.22a5,5,0,0,0-.76-1.56,4.49,4.49,0,0,1,1.52,1A4.7,4.7,0,0,1,297.63,96.92Zm-4.6,0a4.3,4.3,0,0,1-.76-.59,4.39,4.39,0,0,1,1.52-1A5,5,0,0,0,293,96.92Zm0,5.06a5,5,0,0,0,.76,1.56,4.25,4.25,0,0,1-1.52-1A4.83,4.83,0,0,1,293,102Zm4.6,0a4.77,4.77,0,0,1,.76.6,4.32,4.32,0,0,1-1.52,1A5,5,0,0,0,297.63,102Zm.16-.63a8.65,8.65,0,0,0,.19-1.58h1.71a4.39,4.39,0,0,1-.89,2.34A5,5,0,0,0,297.79,101.35Z" transform="translate(-290.33 -94.46)"/></svg>